<svg width="55" height="56" viewBox="0 0 55 56" fill="none" xmlns="http://www.w3.org/2000/svg">
<path d="M50.4166 16.3911V39.3078C50.4166 40.8272 49.813 42.2845 48.7386 43.3589C47.6641 44.4333 46.2069 45.0369 44.6874 45.0369H10.3124C8.79295 45.0369 7.33571 44.4333 6.26129 43.3589C5.18686 42.2845 4.58325 40.8272 4.58325 39.3078V16.3911" stroke="#FF6F61" stroke-width="5" stroke-linecap="round" stroke-linejoin="round"/>
<path d="M50.4166 16.3913C50.4166 14.8718 49.813 13.4146 48.7386 12.3401C47.6641 11.2657 46.2069 10.6621 44.6874 10.6621H10.3124C8.79295 10.6621 7.33571 11.2657 6.26129 12.3401C5.18686 13.4146 4.58325 14.8718 4.58325 16.3913L24.4635 28.8045C25.374 29.3736 26.4262 29.6753 27.4999 29.6753C28.5737 29.6753 29.6258 29.3736 30.5364 28.8045L50.4166 16.3913Z" stroke="#FF6F61" stroke-width="5" stroke-linecap="round" stroke-linejoin="round"/>
</svg>
