<svg width="51" height="38" viewBox="0 0 51 38" fill="none" xmlns="http://www.w3.org/2000/svg">
<path d="M0 4.51454C0 3.25704 0.56545 2.21963 1.6963 1.4023C2.82715 0.584934 4.29731 0.17627 6.10669 0.17627C7.88378 0.17627 9.32157 0.578634 10.4201 1.38344C11.551 2.21337 12.1164 3.29477 12.1164 4.62771C12.1164 5.83488 11.5672 6.84083 10.4686 7.64563C9.33775 8.47556 7.85145 8.89053 6.00975 8.89053H5.96129C4.18419 8.89053 2.74641 8.47556 1.64784 7.64563C0.549262 6.8157 0 5.77199 0 4.51454ZM0.630055 37.5231V12.3234H11.3895V37.5231H0.630055ZM17.3507 37.5231H28.1101V23.452C28.1101 22.5718 28.2394 21.8927 28.4979 21.4149C28.9502 20.5598 29.6368 19.8368 30.5577 19.2458C31.4785 18.6548 32.6336 18.3593 34.023 18.3593C37.6418 18.3593 39.4511 20.258 39.4511 24.0556V37.5231H50.2105V23.0748C50.2105 19.3527 49.0797 16.5296 46.8179 14.6057C44.5562 12.6818 41.5675 11.7198 37.8518 11.7198C33.6837 11.7198 30.4365 13.1156 28.1101 15.9072V15.9826H28.0617L28.1101 15.9072V12.3234H17.3507C17.4153 13.1282 17.4477 15.6305 17.4477 19.8305C17.4477 24.0304 17.4153 29.9279 17.3507 37.5231Z" fill="#0ABAB5"/>
</svg>
