<svg width="52" height="51" viewBox="0 0 52 51" fill="none" xmlns="http://www.w3.org/2000/svg">
<path d="M43.3472 23.0681C43.3472 36.6722 29.1837 45.0534 26.2404 46.6498C26.0773 46.7383 25.8941 46.7847 25.7079 46.7847C25.5217 46.7847 25.3385 46.7383 25.1755 46.6498C22.2299 45.0534 8.0708 36.6722 8.0708 23.0681C8.0708 12.2229 14.6851 4.63135 25.709 4.63135C36.7329 4.63135 43.3472 12.2229 43.3472 23.0681Z" stroke="#FF6F61" stroke-width="5" stroke-linecap="round" stroke-linejoin="round"/>
<path d="M16.89 21.9837C16.89 24.2848 17.8191 26.4916 19.473 28.1187C21.1269 29.7458 23.3701 30.6598 25.7091 30.6598C28.048 30.6598 30.2912 29.7458 31.9451 28.1187C33.599 26.4916 34.5282 24.2848 34.5282 21.9837C34.5282 19.6827 33.599 17.4759 31.9451 15.8488C30.2912 14.2217 28.048 13.3076 25.7091 13.3076C23.3701 13.3076 21.1269 14.2217 19.473 15.8488C17.8191 17.4759 16.89 19.6827 16.89 21.9837V21.9837Z" stroke="#FF6F61" stroke-width="5" stroke-linecap="round" stroke-linejoin="round"/>
</svg>
