<svg width="51" height="52" viewBox="0 0 51 52" fill="none" xmlns="http://www.w3.org/2000/svg">
<path d="M31.5763 47.1167L31.6009 47.1342C33.7257 48.5134 36.2485 49.1124 38.7524 48.832C41.2563 48.5517 43.5914 47.4089 45.372 45.5925L46.9188 44.0156C47.2616 43.6664 47.5335 43.2518 47.719 42.7954C47.9045 42.339 48 41.8498 48 41.3558C48 40.8618 47.9045 40.3726 47.719 39.9162C47.5335 39.4599 47.2616 39.0452 46.9188 38.696L40.3947 32.0502C40.0522 31.7007 39.6454 31.4235 39.1977 31.2344C38.7501 31.0453 38.2702 30.9479 37.7856 30.9479C37.301 30.9479 36.8211 31.0453 36.3735 31.2344C35.9258 31.4235 35.519 31.7007 35.1765 32.0502C34.4847 32.7551 33.5467 33.1512 32.5686 33.1512C31.5905 33.1512 30.6524 32.7551 29.9607 32.0502L19.5291 21.4134C18.8376 20.7082 18.4491 19.7519 18.4491 18.7548C18.4491 17.7577 18.8376 16.8014 19.5291 16.0962C19.8718 15.747 20.1438 15.3324 20.3293 14.876C20.5148 14.4196 20.6103 13.9304 20.6103 13.4364C20.6103 12.9424 20.5148 12.4532 20.3293 11.9968C20.1438 11.5404 19.8718 11.1258 19.5291 10.7766L13.0075 4.13077C12.3157 3.42581 11.3777 3.02979 10.3996 3.02979C9.42147 3.02979 8.48341 3.42581 7.79168 4.13077L6.24243 5.70761C4.46102 7.52306 3.34047 9.90374 3.06594 12.4563C2.79141 15.0088 3.37932 17.5805 4.73253 19.7463L4.74729 19.7714C11.8939 30.5505 21.0013 39.8331 31.5763 47.1167V47.1167Z" stroke="#FF6F61" stroke-width="5" stroke-linecap="round" stroke-linejoin="round"/>
</svg>
