<svg width="53" height="66" viewBox="0 0 53 66" fill="none" xmlns="http://www.w3.org/2000/svg">
<path d="M44.1382 37.0979C44.1382 50.702 29.9747 59.0832 27.0314 60.6796C26.8683 60.768 26.6851 60.8145 26.4989 60.8145C26.3127 60.8145 26.1295 60.768 25.9665 60.6796C23.0209 59.0832 8.86182 50.702 8.86182 37.0979C8.86182 26.2527 15.4761 18.6611 26.5 18.6611C37.5239 18.6611 44.1382 26.2527 44.1382 37.0979Z" stroke="#FF6F61" stroke-width="5" stroke-linecap="round" stroke-linejoin="round"/>
<path d="M17.6809 36.0135C17.6809 38.3146 18.6101 40.5214 20.264 42.1485C21.9179 43.7755 24.161 44.6896 26.5 44.6896C28.839 44.6896 31.0822 43.7755 32.7361 42.1485C34.39 40.5214 35.3191 38.3146 35.3191 36.0135C35.3191 33.7125 34.39 31.5057 32.7361 29.8786C31.0822 28.2515 28.839 27.3374 26.5 27.3374C24.161 27.3374 21.9179 28.2515 20.264 29.8786C18.6101 31.5057 17.6809 33.7125 17.6809 36.0135V36.0135Z" stroke="#FF6F61" stroke-width="5" stroke-linecap="round" stroke-linejoin="round"/>
</svg>
