<svg width="51" height="51" viewBox="0 0 51 51" fill="none" xmlns="http://www.w3.org/2000/svg">
<path fill-rule="evenodd" clip-rule="evenodd" d="M0 25.5436C0 15.4911 0 10.4649 2.39542 6.84462C3.4651 5.228 4.84958 3.84351 6.4662 2.77384C10.0865 0.378418 15.1127 0.378418 25.1652 0.378418C35.2177 0.378418 40.2439 0.378418 43.8642 2.77384C45.4808 3.84351 46.8653 5.228 47.935 6.84462C50.3304 10.4649 50.3304 15.4911 50.3304 25.5436C50.3304 35.5961 50.3304 40.6223 47.935 44.2426C46.8653 45.8592 45.4808 47.2437 43.8642 48.3134C40.2439 50.7088 35.2177 50.7088 25.1652 50.7088C15.1127 50.7088 10.0865 50.7088 6.4662 48.3134C4.84958 47.2437 3.4651 45.8592 2.39542 44.2426C0 40.6223 0 35.5961 0 25.5436ZM38.1931 25.5444C38.1931 32.7398 32.3601 38.5728 25.1648 38.5728C17.9695 38.5728 12.1365 32.7398 12.1365 25.5444C12.1365 18.3491 17.9695 12.5161 25.1648 12.5161C32.3601 12.5161 38.1931 18.3491 38.1931 25.5444ZM25.1648 34.1649C29.9258 34.1649 33.7853 30.3054 33.7853 25.5444C33.7853 20.7835 29.9258 16.924 25.1648 16.924C20.4038 16.924 16.5443 20.7835 16.5443 25.5444C16.5443 30.3054 20.4038 34.1649 25.1648 34.1649ZM38.7077 14.9229C40.3984 14.9229 41.7689 13.5523 41.7689 11.8616C41.7689 10.1709 40.3984 8.80036 38.7077 8.80036C37.017 8.80036 35.6464 10.1709 35.6464 11.8616C35.6464 13.5523 37.017 14.9229 38.7077 14.9229Z" fill="#0ABAB5"/>
</svg>
