<svg width="53" height="42" viewBox="0 0 53 42" fill="none" xmlns="http://www.w3.org/2000/svg">
<path d="M35.919 0.29304V0.28418H38.2733L39.1336 0.452531C39.7071 0.561827 40.2277 0.705058 40.6956 0.88227C41.1635 1.05948 41.6162 1.26624 42.0538 1.50251C42.4915 1.73878 42.8885 1.97952 43.2446 2.22465C43.5978 2.46686 43.9147 2.72381 44.1954 2.99552C44.4731 3.2702 44.9062 3.34109 45.4948 3.20818C46.0834 3.07527 46.7172 2.89066 47.3964 2.65439C48.0755 2.41812 48.7471 2.1523 49.4111 1.85694C50.0752 1.56157 50.4797 1.37403 50.6245 1.29429C50.7664 1.21162 50.8419 1.16732 50.8509 1.16138L50.8599 1.14809L50.9052 1.12594L50.9505 1.10378L50.9958 1.08163L51.041 1.05948L51.0501 1.04619L51.0637 1.03733L51.0773 1.02847L51.0863 1.01518L51.1316 1.00189L51.1769 0.993028L51.1679 1.05948L51.1542 1.12594L51.1316 1.19239L51.1089 1.25885L51.0863 1.30315L51.0637 1.34745L51.041 1.41391C51.026 1.45821 51.0109 1.51726 50.9958 1.59112C50.9807 1.66497 50.8373 1.96029 50.5656 2.47718C50.294 2.99406 49.9544 3.5183 49.5469 4.04993C49.1395 4.58157 48.7743 4.98322 48.4513 5.25497C48.1253 5.52965 47.9095 5.72162 47.8038 5.83091C47.6982 5.94313 47.5699 6.04649 47.419 6.14103L47.1926 6.28723L47.1473 6.30939L47.1021 6.33154L47.0931 6.34483L47.0794 6.35369L47.0658 6.36255L47.0568 6.37584L47.0115 6.39799L46.9662 6.42014L46.9572 6.43343L46.9436 6.4423L46.93 6.45116L46.921 6.46445L46.912 6.47774L46.8983 6.4866L46.8847 6.49546L46.8757 6.50875H47.1021L48.3698 6.24293C49.2149 6.06572 50.0223 5.8516 50.792 5.60054L52.0145 5.20181L52.1503 5.15751L52.2182 5.13536L52.2635 5.11321L52.3087 5.09105L52.354 5.0689L52.3993 5.04675L52.4898 5.03346L52.5804 5.0246V5.11321L52.5578 5.12207L52.5351 5.13536L52.5261 5.14865L52.5125 5.15751L52.4989 5.16637L52.4898 5.17966L52.4808 5.19295L52.4672 5.20181L52.4536 5.21067L52.4446 5.22396L52.4356 5.23725L52.4219 5.24611L52.3993 5.29042L52.3767 5.33472L52.3631 5.34358C52.3571 5.35244 52.1654 5.60346 51.7881 6.09673C51.4108 6.59293 51.2071 6.84395 51.1769 6.84988C51.1467 6.85874 51.1044 6.90305 51.0501 6.98279C50.9988 7.06546 50.6788 7.39481 50.0902 7.97075C49.5017 8.54669 48.9252 9.0591 48.3608 9.50806C47.7933 9.95995 47.5066 10.5152 47.5005 11.1739C47.4915 11.8295 47.4568 12.5709 47.3964 13.3979C47.336 14.2249 47.2228 15.1183 47.0568 16.0782C46.8908 17.0381 46.6342 18.1235 46.2871 19.3345C45.94 20.5454 45.5174 21.7268 45.0194 22.8787C44.5214 24.0306 44.0007 25.0643 43.4574 25.9799C42.9141 26.8955 42.416 27.6708 41.9633 28.3058C41.5105 28.9408 41.0503 29.5389 40.5824 30.1001C40.1146 30.6613 39.523 31.2933 38.8076 31.9963C38.0893 32.6962 37.6969 33.0802 37.6305 33.1481C37.5611 33.2131 37.2653 33.4553 36.743 33.8747C36.2239 34.297 35.6655 34.7194 35.0678 35.1418C34.4732 35.5612 33.9269 35.9112 33.4289 36.1918C32.9308 36.4723 32.3302 36.7928 31.6269 37.1531C30.9267 37.5164 30.169 37.8531 29.3541 38.1632C28.5391 38.4734 27.6789 38.7613 26.7734 39.0271C25.8679 39.293 24.9925 39.4997 24.1474 39.6474C23.3023 39.795 22.3439 39.9206 21.2724 40.024L19.6651 40.179V40.2012H16.7222V40.179L16.3374 40.1569C16.0808 40.1421 15.8695 40.1273 15.7035 40.1126C15.5375 40.0978 14.9112 40.0166 13.8246 39.8689C12.738 39.7212 11.8853 39.5735 11.2665 39.4259C10.6478 39.2782 9.72714 38.9976 8.5047 38.5841C7.28226 38.1706 6.2364 37.7527 5.36711 37.3303C4.50085 36.9109 3.95755 36.6451 3.73719 36.5329C3.51987 36.4236 3.27538 36.2878 3.00373 36.1253L2.59625 35.8816L2.58724 35.8683L2.57361 35.8595L2.56003 35.8506L2.55098 35.8373L2.5057 35.8152L2.46042 35.793L2.45141 35.7797L2.43779 35.7709L2.4242 35.762L2.41515 35.7487L2.40614 35.7354L2.39251 35.7266H2.36987V35.638L2.41515 35.6468L2.46042 35.6601L2.66416 35.6823C2.79999 35.697 3.16976 35.7192 3.77341 35.7487C4.37712 35.7783 5.01849 35.7783 5.69762 35.7487C6.37675 35.7192 7.07101 35.6527 7.78029 35.5494C8.48963 35.446 9.32722 35.2688 10.2931 35.0177C11.259 34.7667 12.1464 34.4684 12.9553 34.1228C13.7612 33.7743 14.3347 33.5144 14.6758 33.3431C15.0138 33.1747 15.53 32.8616 16.2242 32.4038L17.2655 31.7171L17.2746 31.7039L17.2881 31.695L17.3018 31.6861L17.3108 31.6728L17.3198 31.6596L17.3334 31.6507L17.3471 31.6418L17.3561 31.6285L17.4013 31.6153L17.4466 31.6064L17.4557 31.5621L17.4693 31.5178L17.4829 31.5089L17.4919 31.4956L17.1297 31.4735C16.8882 31.4587 16.6543 31.4439 16.4279 31.4292C16.2015 31.4144 15.8469 31.348 15.3639 31.2298C14.881 31.1117 14.3604 30.9345 13.8019 30.6982C13.2436 30.4619 12.7002 30.1813 12.172 29.8564C11.6438 29.5316 11.262 29.2613 11.0265 29.0457C10.7941 28.833 10.4923 28.5318 10.121 28.1419C9.75281 27.7491 9.43285 27.3459 9.1612 26.9324C8.88954 26.5189 8.62998 26.0419 8.3825 25.5014L8.00667 24.6951L7.98404 24.6287L7.9614 24.5622L7.94781 24.5179L7.93876 24.4736L8.00667 24.4825L8.07459 24.4958L8.57262 24.5622C8.90467 24.6065 9.42533 24.6213 10.1346 24.6065C10.844 24.5918 11.3344 24.5622 11.6061 24.5179C11.8777 24.4736 12.0438 24.4441 12.1041 24.4293L12.1947 24.4072L12.3078 24.385L12.421 24.3629L12.4301 24.3496L12.4437 24.3407L12.4573 24.3318L12.4663 24.3186L12.3758 24.2964L12.2852 24.2742L12.1947 24.2521L12.1041 24.2299L12.0136 24.2078C11.9532 24.193 11.8476 24.1635 11.6966 24.1192C11.5457 24.0749 11.1382 23.9124 10.4742 23.6319C9.81018 23.3513 9.28195 23.0781 8.88954 22.8123C8.49617 22.5457 8.12109 22.2541 7.76671 21.9395C7.41356 21.6205 7.02573 21.2099 6.60313 20.7079C6.18058 20.2058 5.8033 19.6224 5.47124 18.9579C5.13924 18.2933 4.89022 17.6583 4.7242 17.0529C4.55884 16.4509 4.44975 15.8355 4.39826 15.2143L4.31672 14.2839L4.36199 14.2928L4.40727 14.3061L4.45255 14.3282L4.49782 14.3504L4.5431 14.3725L4.58837 14.3947L5.29014 14.7048C5.75802 14.9116 6.33904 15.0888 7.03325 15.2364C7.7275 15.3841 8.1425 15.4654 8.27833 15.4801L8.48207 15.5023H8.88954L8.88053 15.489L8.86691 15.4801L8.85332 15.4712L8.84427 15.458L8.83526 15.4447L8.82163 15.4358L8.80805 15.4269L8.79899 15.4137L8.75372 15.3915L8.70844 15.3693L8.69943 15.3561L8.6858 15.3472L8.67222 15.3383L8.66317 15.325L8.61789 15.3029L8.57262 15.2807L8.56361 15.2675C8.55455 15.2615 8.42475 15.167 8.17419 14.9839C7.92667 14.7978 7.66711 14.5571 7.39545 14.2618C7.1238 13.9664 6.85215 13.6563 6.58049 13.3314C6.30834 13.0058 6.06594 12.6574 5.85609 12.2903C5.64483 11.9211 5.42144 11.4515 5.18601 10.8815C4.95361 10.3144 4.77704 9.74287 4.65629 9.16693C4.53558 8.59099 4.46767 8.02245 4.45255 7.46126C4.43747 6.90008 4.45255 6.42014 4.49782 6.02142C4.5431 5.62269 4.63365 5.17226 4.76947 4.67018C4.9053 4.16809 5.10153 3.63645 5.35806 3.07527L5.7429 2.23351L5.76554 2.16706L5.78817 2.1006L5.8018 2.09174L5.81081 2.07845L5.81987 2.06516L5.83345 2.0563L5.84708 2.06516L5.85609 2.07845L5.86514 2.09174L5.87872 2.1006L5.89235 2.10946L5.90136 2.12275L5.91042 2.13604L5.924 2.14491L5.94664 2.18921L5.96928 2.23351L5.9829 2.24237L5.99191 2.25566L6.60313 2.92021C7.01061 3.36324 7.49357 3.85797 8.05195 4.40436C8.61038 4.95075 8.91974 5.23429 8.9801 5.25497C9.04049 5.27859 9.11592 5.34651 9.20647 5.45877C9.29702 5.56806 9.59888 5.82945 10.112 6.24293C10.6251 6.65641 11.2967 7.13639 12.1267 7.68278C12.9568 8.22917 13.8774 8.7682 14.8885 9.29984C15.8997 9.83147 16.9863 10.3114 18.1484 10.7397C19.3105 11.168 20.1254 11.4485 20.5933 11.5814C21.0611 11.7144 21.861 11.8842 22.9929 12.0909C24.1248 12.2977 24.9775 12.4306 25.5509 12.4897C26.1244 12.5487 26.5168 12.5827 26.7281 12.5915L27.045 12.6004L27.036 12.534L27.0224 12.4675L26.9318 11.9137C26.8715 11.5445 26.8413 11.0277 26.8413 10.3631C26.8413 9.69856 26.8941 9.08572 26.9997 8.52454C27.1054 7.96335 27.2639 7.39481 27.4751 6.81887C27.6864 6.24293 27.8932 5.78067 28.0954 5.43219C28.3007 5.08662 28.5693 4.69233 28.9013 4.2493C29.2334 3.80627 29.6635 3.34848 30.1917 2.8759C30.7199 2.40332 31.3236 1.98245 32.0027 1.61327C32.6818 1.24409 33.3082 0.963477 33.8816 0.771513C34.4551 0.579548 34.9381 0.453993 35.3304 0.394937C35.7228 0.335881 35.919 0.301901 35.919 0.29304Z" fill="#0ABAB5"/>
</svg>
